/* XPM */
static char * aes_on_tga[] = {
"24 24 373 2",
"  	c None",
". 	c #032E00",
"+ 	c #032F00",
"@ 	c #033000",
"# 	c #043300",
"$ 	c #032D00",
"% 	c #F4FDF4",
"& 	c #DAF6D9",
"* 	c #C5F0C2",
"= 	c #C2F0BF",
"- 	c #BEEFBB",
"; 	c #B1ECAC",
"> 	c #A9E9A4",
", 	c #A5E99F",
"' 	c #98E792",
") 	c #8FE189",
"! 	c #85DA7F",
"~ 	c #84D97E",
"{ 	c #84DA7E",
"] 	c #5ED055",
"^ 	c #099900",
"/ 	c #ECFAEB",
"( 	c #DDEDDC",
"_ 	c #61A95C",
": 	c #0B7004",
"< 	c #053E00",
"[ 	c #043500",
"} 	c #074602",
"| 	c #084C02",
"1 	c #095703",
"2 	c #0C6706",
"3 	c #0D6B06",
"4 	c #0F7408",
"5 	c #158D0C",
"6 	c #21B616",
"7 	c #43C03A",
"8 	c #4EC346",
"9 	c #0AA800",
"0 	c #23C816",
"a 	c #033100",
"b 	c #C7F1C3",
"c 	c #59A354",
"d 	c #054C00",
"e 	c #077E00",
"f 	c #16B00A",
"g 	c #16B20A",
"h 	c #12B006",
"i 	c #0FAE03",
"j 	c #0CAD00",
"k 	c #0CB500",
"l 	c #0DB700",
"m 	c #0EBB00",
"n 	c #0DB300",
"o 	c #0BA200",
"p 	c #0A9F00",
"q 	c #0AA000",
"r 	c #0FB203",
"s 	c #31CB26",
"t 	c #A3EA9D",
"u 	c #066900",
"v 	c #098100",
"w 	c #26C11A",
"x 	c #033200",
"y 	c #043200",
"z 	c #043100",
"A 	c #13BF06",
"B 	c #0BA400",
"C 	c #0EB102",
"D 	c #2FCC24",
"E 	c #C0F0BC",
"F 	c #053B00",
"G 	c #12A907",
"H 	c #043700",
"I 	c #C8D2CE",
"J 	c #C0CCC7",
"K 	c #B3C2BB",
"L 	c #A2B3AC",
"M 	c #8CA298",
"N 	c #728C81",
"O 	c #547466",
"P 	c #476759",
"Q 	c #1FB913",
"R 	c #19C60D",
"S 	c #CCE4CA",
"T 	c #15AB09",
"U 	c #C3CEC9",
"V 	c #C4CFCB",
"W 	c #BECAC5",
"X 	c #B1C0BA",
"Y 	c #9EB0A8",
"Z 	c #839B91",
"` 	c #648174",
" .	c #496A5C",
"..	c #436154",
"+.	c #3D594D",
"@.	c #6ED366",
"#.	c #19B30E",
"$.	c #0A9E00",
"%.	c #E1F7DF",
"&.	c #BCD9BA",
"*.	c #054300",
"=.	c #13A808",
"-.	c #B6C4BE",
";.	c #C5F7C8",
">.	c #B7F4BB",
",.	c #A6F2AA",
"'.	c #748E83",
").	c #6FEA77",
"!.	c #67E86D",
"~.	c #62E766",
"{.	c #385246",
"].	c #77DA70",
"^.	c #3BBE31",
"/.	c #087F00",
"(.	c #0DAD00",
"_.	c #C2F0BE",
":.	c #6CAB68",
"<.	c #055100",
"[.	c #11A605",
"}.	c #A5B6AE",
"|.	c #A6B7AF",
"1.	c #A0B2AA",
"2.	c #92A69D",
"3.	c #7A9388",
"4.	c #5B7A6C",
"5.	c #48685A",
"6.	c #415E51",
"7.	c #3A5549",
"8.	c #344C41",
"9.	c #70DA68",
"0.	c #3BBB32",
"a.	c #087A00",
"b.	c #0EB300",
"c.	c #B6EEB1",
"d.	c #3F9339",
"e.	c #065C00",
"f.	c #10A204",
"g.	c #8FA59B",
"h.	c #A2F1A7",
"i.	c #99F0A0",
"j.	c #738E82",
"k.	c #79EB80",
"l.	c #6AE971",
"m.	c #5FE664",
"n.	c #5AE55C",
"o.	c #30463C",
"p.	c #78DA71",
"q.	c #38B12F",
"r.	c #077900",
"s.	c #ABE7A7",
"t.	c #459C3F",
"u.	c #065D00",
"v.	c #0EA202",
"w.	c #769085",
"x.	c #6E897D",
"y.	c #5F7D70",
"z.	c #4B6D5E",
"A.	c #426153",
"B.	c #3D584C",
"C.	c #375045",
"D.	c #32483E",
"E.	c #2D4138",
"F.	c #89DC83",
"G.	c #3DA435",
"H.	c #077100",
"I.	c #0EB700",
"J.	c #C7E2C5",
"K.	c #3F9E38",
"L.	c #086C01",
"M.	c #0BA800",
"N.	c #58786A",
"O.	c #69E870",
"P.	c #66E86D",
"Q.	c #405D50",
"R.	c #5FE663",
"S.	c #5BE55E",
"T.	c #57E459",
"U.	c #54E354",
"V.	c #2A3D35",
"W.	c #97D892",
"X.	c #42953C",
"Y.	c #066400",
"Z.	c #0DA600",
"`.	c #D6EED5",
" +	c #BADCB8",
".+	c #188C0F",
"++	c #0C7A02",
"@+	c #0C9A00",
"#+	c #48695A",
"$+	c #456456",
"%+	c #395247",
"&+	c #354D42",
"*+	c #31473E",
"=+	c #2E4239",
"-+	c #2A3E35",
";+	c #283A32",
">+	c #B9DCB8",
",+	c #4D8C48",
"'+	c #066000",
")+	c #0A8800",
"!+	c #ABE8A6",
"~+	c #69B763",
"{+	c #0D7E05",
"]+	c #0D7A03",
"^+	c #0B8402",
"/+	c #3E5B4E",
"(+	c #3A5449",
"_+	c #364E43",
":+	c #32493F",
"<+	c #2E443A",
"[+	c #2C4037",
"}+	c #293C34",
"|+	c #273931",
"1+	c #D7E3D6",
"2+	c #4B8A47",
"3+	c #066500",
"4+	c #0A8500",
"5+	c #0EC800",
"6+	c #7FDF78",
"7+	c #39A731",
"8+	c #0C8503",
"9+	c #0E9404",
"0+	c #0D9704",
"a+	c #0B8602",
"b+	c #F9F9F9",
"c+	c #C1D5C1",
"d+	c #1E8018",
"e+	c #066A00",
"f+	c #098D00",
"g+	c #16D707",
"h+	c #73D06C",
"i+	c #39AF30",
"j+	c #0D9203",
"k+	c #0F9A03",
"l+	c #0F9C04",
"m+	c #11AA07",
"n+	c #1CB910",
"o+	c #73D66C",
"p+	c #92DF8C",
"q+	c #94E38E",
"r+	c #8FE588",
"s+	c #91E48B",
"t+	c #94DF8E",
"u+	c #94DC8F",
"v+	c #C0E7BE",
"w+	c #D9EED7",
"x+	c #BFDFBE",
"y+	c #41973B",
"z+	c #077800",
"A+	c #097300",
"B+	c #0BB800",
"C+	c #4BE040",
"D+	c #3EC434",
"E+	c #0EA905",
"F+	c #0E9303",
"G+	c #0FA103",
"H+	c #10A904",
"I+	c #10A104",
"J+	c #12B306",
"K+	c #13B009",
"L+	c #1EB413",
"M+	c #2AB71F",
"N+	c #27B61C",
"O+	c #16AE0C",
"P+	c #0F9B06",
"Q+	c #0F9506",
"R+	c #0D8B05",
"S+	c #0C8A05",
"T+	c #098801",
"U+	c #088300",
"V+	c #077B00",
"W+	c #0BB700",
"X+	c #49DA3E",
"Y+	c #80EC77",
"Z+	c #0A8000",
"`+	c #0B9100",
" @	c #0CA401",
".@	c #0DB100",
"+@	c #11BD03",
"@@	c #16C10A",
"#@	c #19C30D",
"$@	c #1DC610",
"%@	c #1AC60E",
"&@	c #1DC30F",
"*@	c #1EC512",
"=@	c #21C815",
"-@	c #23CB17",
";@	c #25CF19",
">@	c #27D41B",
",@	c #2ED922",
"'@	c #34DA27",
")@	c #3BDA2E",
"!@	c #56E14C",
"~@	c #8DED85",
"{@	c #FFFFFF",
"]@	c #D2F4CF",
"^@	c #A9ECA4",
"/@	c #AEECA9",
"(@	c #A9EBA4",
"_@	c #ACECA7",
":@	c #AAECA5",
"<@	c #A4EA9E",
"[@	c #9CE896",
"}@	c #93E78D",
"|@	c #92E78B",
"1@	c #88E581",
"2@	c #84E47D",
"3@	c #77E26F",
"4@	c #77E06E",
"5@	c #78DF70",
"6@	c #46D63A",
"7@	c #0AB100",
"8@	c #DDF5DC",
"9@	c #58B253",
"0@	c #33992A",
"a@	c #32902B",
"b@	c #277D21",
"c@	c #2D8826",
"d@	c #2C8D23",
"e@	c #2B9124",
"f@	c #299322",
"g@	c #319D2A",
"h@	c #34A52D",
"i@	c #37A82F",
"j@	c #37AC2F",
"k@	c #38AE2F",
"l@	c #3BB831",
"m@	c #3BC132",
"n@	c #37C52C",
"o@	c #20C914",
"p@	c #099400",
"q@	c #28D71A",
"r@	c #81D87A",
"s@	c #078F00",
"t@	c #005D00",
"u@	c #004500",
"v@	c #004600",
"w@	c #005500",
"x@	c #005800",
"y@	c #006300",
"z@	c #086F01",
"A@	c #0B7904",
"B@	c #097B01",
"C@	c #098001",
"D@	c #0A8402",
"E@	c #098501",
"F@	c #0A8701",
"G@	c #0A8B01",
"H@	c #0B9302",
"I@	c #10A606",
"J@	c #0D9C02",
"K@	c #10C805",
"L@	c #45D73A",
"M@	c #9CEC95",
"N@	c #008900",
"O@	c #039400",
"P@	c #0BA000",
"Q@	c #0BA900",
"R@	c #10A805",
"S@	c #23C516",
"T@	c #26CB19",
"U@	c #28CE1A",
"V@	c #28D21C",
"W@	c #35DA29",
"X@	c #3FDF33",
"Y@	c #4CE140",
"Z@	c #59E34F",
"`@	c #65E55C",
" #	c #78E770",
".#	c #7EE876",
"+#	c #7DE875",
"@#	c #7BE973",
"##	c #ADF3A8",
"        . . + + + + + + + + @ @ @ @ @ #         ",
"      $ % & * = - ; > , ' ) ! ! ~ { ] ^ $       ",
"    . / ( _ : < [ } | 1 2 3 4 5 6 7 8 9 0 a     ",
"    . b c d e f g h i j k l m n o p q r s @     ",
"    + t u v w $ x x y y y z z y $ A B C D @     ",
"    + E F G $ H I J K L M N O P H $ Q q R a     ",
"    $ S H T x U V W X Y Z `  ...+.@ @.#.$.$     ",
"  . %.&.*.=.x -.;.K >.,.'.).!.~.{.@ ].^./.(.y   ",
"  + _.:.<.[.x }.|.1.2.3.4.5.6.7.8.@ 9.0.a.b.y   ",
"  + c.d.e.f.x g.h.i.j.k.l...m.n.o.@ p.q.r.m z   ",
"  + s.t.u.v.y w.x.y.z.P A.B.C.D.E.@ F.G.H.I.z   ",
"  $ J.K.L.M.y N.z.O.P.Q.R.S.T.U.V.@ W.X.Y.Z.$   ",
"+ `. +.+++@+# #+$+6.B.%+&+*+=+-+;+@ >+,+'+)+I.y ",
"+ !+~+{+]+^+@ H /+(+_+:+<+[+}+|+H $ 1+2+3+4+5+z ",
"+ 6+7+8+9+0+a+. @ + + + + + @ + $ b+c+d+e+f+g+@ ",
"@ h+i+j+k+l+m+n+o+p+q+r+s+t+u+v+w+x+y+z+A+B+C++ ",
"a D+E+F+G+H+I+J+K+L+M+N+O+P+Q+R+S+T+U+V+W+X+Y++ ",
"  . Z+`+ @.@+@@@#@$@%@&@*@=@-@;@>@,@'@)@!@~@$   ",
"    $ $ $ $ $ $ $ $ $ $ $ $ $ $ $ $ $ $ $ $     ",
"  $ {@]@^@/@(@_@:@<@t [@}@|@|@1@2@3@4@5@6@7@$   ",
". {@8@9@0@a@b@c@d@e@f@g@h@i@j@k@q.l@m@n@o@p@q@@ ",
"@ r@s@t@u@v@w@x@y@z@A@B@C@D@E@F@G@H@I@J@K@L@M@+ ",
"  $ N@O@P@Q@R@Q S@T@U@V@W@X@Y@Z@`@ #.#+#@###$   ",
"    # # y y x a a a @ @ @ + + + + + + + + .     "};
