/* XPM */
static char * server_xpm[] = {
"20 20 6 1",
" 	c None",
".	c #FFFFFF",
"+	c #000000",
"@	c #848484",
"#	c #C6C6C6",
"-	c #FF0000",
"--                --",
"---              ---",
" --- +++++++++++--- ",
"  ---..........---  ",
"   ---@@@@@@@@---+  ",
"    ---......---@+  ",
"    +---....---@@+  ",
"    +.---..---#@@+  ",
"    +.@----.-.#@@+  ",
"    +.@.----..#@@+  ",
"    +.##----###@+   ",
"     ++------+++    ",
"    ++---++---++++  ",
"   +.---.@.@---@.+  ",
"   +---#@#@#@---@+  ",
"  +---#@#@#@#@---   ",
"  ---..........---  ",
" ---++++++++++++--- ",
"---              ---",
"--                --"};
