/* XPM */
static char * aes_off[] = {
"24 24 370 2",
"  	c None",
". 	c #5B0000",
"+ 	c #5A0000",
"@ 	c #5C0000",
"# 	c #FEFBFB",
"$ 	c #FEEAEA",
"% 	c #FED6D6",
"& 	c #FED3D3",
"* 	c #FECFCF",
"= 	c #FEC3C3",
"- 	c #FEBEBE",
"; 	c #FEB9B9",
"> 	c #FEABAB",
", 	c #FBA2A2",
"' 	c #F89595",
") 	c #F89393",
"! 	c #F89292",
"~ 	c #F76C6C",
"{ 	c #F00505",
"] 	c #550000",
"^ 	c #FEF7F7",
"/ 	c #F8EAEA",
"( 	c #BF6264",
"_ 	c #840808",
": 	c #6C0101",
"< 	c #680000",
"[ 	c #730000",
"} 	c #830000",
"| 	c #970000",
"1 	c #B30000",
"2 	c #C10000",
"3 	c #CF0000",
"4 	c #DA0303",
"5 	c #ED2021",
"6 	c #F35050",
"7 	c #F45A5A",
"8 	c #E9100C",
"9 	c #F43C29",
"0 	c #FED7D7",
"a 	c #B75858",
"b 	c #760201",
"c 	c #8F0A04",
"d 	c #C62F0A",
"e 	c #C82F0A",
"f 	c #C72B09",
"g 	c #C82809",
"h 	c #CB2508",
"i 	c #D92708",
"j 	c #E12608",
"k 	c #EC2708",
"l 	c #F01F07",
"m 	c #F00B04",
"n 	c #E90A08",
"o 	c #E10A0B",
"p 	c #EC1F16",
"q 	c #F44B31",
"r 	c #FEB6B6",
"s 	c #7E0505",
"t 	c #960B04",
"u 	c #D24615",
"v 	c #560000",
"w 	c #590000",
"x 	c #5D0000",
"y 	c #F4281D",
"z 	c #DF0E0E",
"A 	c #E51A14",
"B 	c #F14A2D",
"C 	c #FED0D0",
"D 	c #690101",
"E 	c #BE2909",
"F 	c #620000",
"G 	c #D1DDD8",
"H 	c #C8D6D0",
"I 	c #B9CAC2",
"J 	c #A5B9B1",
"K 	c #8DA59A",
"L 	c #6F8D80",
"M 	c #4C7161",
"N 	c #3D6252",
"O 	c #ED2A2A",
"P 	c #D50A08",
"Q 	c #EE341A",
"R 	c #F5D7D7",
"S 	c #690000",
"T 	c #BE2A0A",
"U 	c #CBD8D3",
"V 	c #CCD9D5",
"W 	c #C6D4CE",
"X 	c #B7C8C1",
"Y 	c #A1B6AC",
"Z 	c #829E92",
"` 	c #5E8071",
" .	c #3F6655",
"..	c #395B4C",
"+.	c #325244",
"@.	c #F57A7A",
"#.	c #D62021",
"$.	c #E50A04",
"%.	c #FEF0F0",
"&.	c #EAC6C6",
"*.	c #730101",
"=.	c #BC2909",
"-.	c #BDCCC6",
";.	c #BFCFC8",
">.	c #ABBEB6",
",.	c #93AAA0",
"'.	c #718F82",
").	c #476C5C",
"!.	c #3B5F50",
"~.	c #345447",
"{.	c #2C4A3C",
"].	c #F78686",
"^.	c #DA4141",
"/.	c #D70402",
"(.	c #E71305",
"_.	c #FED5D5",
":.	c #BE6E6E",
"<.	c #7D0301",
"[.	c #BE2609",
"}.	c #A9BDB4",
"|.	c #AABEB5",
"1.	c #A3B8AF",
"2.	c #789588",
"3.	c #547868",
"4.	c #3E6353",
"5.	c #365849",
"6.	c #2E4D3F",
"7.	c #284336",
"8.	c #F77D7D",
"9.	c #D64141",
"0.	c #D00302",
"a.	c #EE1B06",
"b.	c #FEC8C8",
"c.	c #A43939",
"d.	c #8C0302",
"e.	c #B72107",
"f.	c #90A99E",
"g.	c #8EA59B",
"h.	c #708F81",
"i.	c #3F6654",
"j.	c #315143",
"k.	c #2A4539",
"l.	c #233C31",
"m.	c #F68686",
"n.	c #CF3B3B",
"o.	c #FA2308",
"p.	c #FBBBBB",
"q.	c #AD4141",
"r.	c #8F0302",
"s.	c #B82107",
"t.	c #739184",
"u.	c #6A897B",
"v.	c #597B6C",
"w.	c #426958",
"x.	c #375B4B",
"y.	c #325143",
"z.	c #2B483B",
"A.	c #253E33",
"B.	c #20362C",
"C.	c #F59696",
"D.	c #BC3C3C",
"E.	c #C80301",
"F.	c #FB1B06",
"G.	c #F3D1D1",
"H.	c #B44242",
"I.	c #960302",
"J.	c #C22108",
"K.	c #517566",
"L.	c #3A5D4F",
"M.	c #355648",
"N.	c #315042",
"O.	c #253F34",
"P.	c #21392E",
"Q.	c #1C3229",
"R.	c #F4A3A3",
"S.	c #A13B3B",
"T.	c #B90101",
"U.	c #F80804",
"V.	c #FAE5E5",
"W.	c #EDC1C1",
"X.	c #A91C1C",
"Y.	c #A10301",
"Z.	c #C61A06",
"`.	c #3E6553",
" +	c #3B5E4F",
".+	c #2D4A3D",
"++	c #294437",
"@+	c #243D33",
"#+	c #21372D",
"$+	c #1C3329",
"%+	c #192E25",
"&+	c #F1C7C7",
"*+	c #914444",
"=+	c #AC0101",
"-+	c #FA0302",
";+	c #FB1807",
">+	c #FCBBBB",
",+	c #CC6B6B",
"'+	c #A30303",
")+	c #C90704",
"!+	c #580000",
"~+	c #335445",
"{+	c #2E4C3F",
"]+	c #213A2E",
"^+	c #1F352B",
"/+	c #1B3128",
"(+	c #182D24",
"_+	c #540000",
":+	c #F1E2E2",
"<+	c #8D4142",
"[+	c #AE0202",
"}+	c #FE2E0C",
"|+	c #FB8F8F",
"1+	c #C53B3B",
"2+	c #AC0000",
"3+	c #B90000",
"4+	c #C90201",
"5+	c #E40402",
"6+	c #550101",
"7+	c #FDFDFD",
"8+	c #DDC7C9",
"9+	c #8E1616",
"0+	c #C70101",
"a+	c #FD0302",
"b+	c #FE4C24",
"c+	c #F68080",
"d+	c #D23F3F",
"e+	c #C00000",
"f+	c #CB0000",
"g+	c #D60000",
"h+	c #DE0100",
"i+	c #F52929",
"j+	c #F78282",
"k+	c #F8A0A0",
"l+	c #F8A1A1",
"m+	c #FA9F9F",
"n+	c #F99D9D",
"o+	c #FBA7A7",
"p+	c #FBABAB",
"q+	c #F9CECE",
"r+	c #FBE7E7",
"s+	c #F0C8C8",
"t+	c #A43E3C",
"u+	c #AF0404",
"v+	c #EF0101",
"w+	c #FE1109",
"x+	c #FE7156",
"y+	c #F14A4A",
"z+	c #D41716",
"A+	c #D00101",
"B+	c #DC0101",
"C+	c #E10201",
"D+	c #E90605",
"E+	c #EE1B18",
"F+	c #EC1F1D",
"G+	c #EB2825",
"H+	c #E93432",
"I+	c #E83231",
"J+	c #DD221F",
"K+	c #DC1E18",
"L+	c #D51C16",
"M+	c #CB1B17",
"N+	c #CB1A16",
"O+	c #CD0E0D",
"P+	c #CB0504",
"Q+	c #EB0202",
"R+	c #FE0F0C",
"S+	c #FE6D58",
"T+	c #FDA782",
"U+	c #E20301",
"V+	c #E80604",
"W+	c #F30C05",
"X+	c #F41B08",
"Y+	c #F52914",
"Z+	c #F52D18",
"`+	c #F3311C",
" @	c #F02D18",
".@	c #ED240E",
"+@	c #ED1105",
"@@	c #F90B04",
"#@	c #FE0B04",
"$@	c #FE1004",
"%@	c #FE1506",
"&@	c #FA4229",
"*@	c #FD533F",
"=@	c #FE5749",
"-@	c #FE7964",
";@	c #FDB291",
">@	c #FCFCFC",
",@	c #FBDFDF",
"'@	c #FAB8B8",
")@	c #FABBBB",
"!@	c #F8B7B7",
"~@	c #F7B8B8",
"{@	c #F6B4B4",
"]@	c #F5AFAF",
"^@	c #F4AEAE",
"/@	c #F4A8A8",
"(@	c #F59F9F",
"_@	c #F69E9E",
":@	c #F7A0A0",
"<@	c #F89797",
"[@	c #F99494",
"}@	c #FA8888",
"|@	c #FC8888",
"1@	c #FC898A",
"2@	c #FD5958",
"3@	c #FE0806",
"4@	c #F8F0F0",
"5@	c #CE6F6F",
"6@	c #B64444",
"7@	c #AE4445",
"8@	c #AB4444",
"9@	c #B34444",
"0@	c #BE4445",
"a@	c #C14545",
"b@	c #C74545",
"c@	c #CD4646",
"d@	c #D64747",
"e@	c #DD4747",
"f@	c #E54747",
"g@	c #EA4949",
"h@	c #EE4949",
"i@	c #F64A4A",
"j@	c #F9494A",
"k@	c #FC4B4B",
"l@	c #FE3434",
"m@	c #FE0404",
"n@	c #FE4835",
"o@	c #F28C8B",
"p@	c #BF1A17",
"q@	c #9F0404",
"r@	c #980101",
"s@	c #980100",
"t@	c #A40201",
"u@	c #B70201",
"v@	c #BB0201",
"w@	c #C40201",
"x@	c #CA0201",
"y@	c #D30201",
"z@	c #E50201",
"A@	c #EB0101",
"B@	c #F20101",
"C@	c #F60101",
"D@	c #FA0201",
"E@	c #FE0302",
"F@	c #FE0907",
"G@	c #FE0504",
"H@	c #FE2418",
"I@	c #FE5D51",
"J@	c #FEB8A7",
"K@	c #E10704",
"L@	c #E00704",
"M@	c #FF0C05",
"N@	c #FF0D06",
"O@	c #FF1006",
"P@	c #FF270B",
"Q@	c #FF2D0B",
"R@	c #FF300B",
"S@	c #FF3A10",
"T@	c #FF542A",
"U@	c #FF5A36",
"V@	c #FF6746",
"W@	c #FC6D52",
"X@	c #FE7A61",
"Y@	c #FE967F",
"Z@	c #FE9F8B",
"`@	c #FE9A88",
" #	c #FE9A82",
".#	c #FEC9B2",
"        . . . + + + + + + + . . . . . @         ",
"      . # $ % & * = - ; > , ' ' ) ! ~ { ]       ",
"    . ^ / ( _ : < [ } | 1 2 3 4 5 6 7 8 9 .     ",
"    . 0 a b c d e f g h i j k l m n o p q .     ",
"    . r s t u v w . x x @ @ . . ] y z A B .     ",
"    . C D E ] F G H I J K L M N F ] O P Q .     ",
"    . R S T . U V W X Y Z `  ...+.. @.#.$..     ",
"  . %.&.*.=.x -.;.I >.,.'.).!.~.{.. ].^./.(..   ",
"  . _.:.<.[.x }.|.1.,.2.3.4.5.6.7.+ 8.9.0.a..   ",
"  . b.c.d.e.x f.g.Z h.3.i...j.k.l.. m.n.0.o..   ",
"  . p.q.r.s.x t.u.v.w.N x.y.z.A.B.. C.D.E.F..   ",
"  . G.H.I.J.x K.w.4.L.M.N.z.O.P.Q.. R.S.T.U..   ",
". V.W.X.Y.Z.x `. +5.y..+++@+#+$+%+@ &+*+=+-+;+. ",
". >+,+'+=+)+!+F ~+{+k.O.]+^+/+(+F _+:+<+[+-+}+. ",
". |+1+2+3+4+5+] . . . . . . x x 6+7+8+9+0+a+b+. ",
". c+d+e+f+g+h+i+j+k+l+m+n+o+p+q+r+s+t+u+v+w+x+. ",
". y+z+A+B+C+D+E+F+G+H+I+J+K+L+M+N+O+P+Q+R+S+T+. ",
"  . U+V+W+X+Y+Z+`+ @.@+@m @@#@$@%@&@*@=@-@;@.   ",
"    . . . . . . . . . . . . . . . . . . . .     ",
"  . >@,@'@)@!@~@{@]@^@/@(@_@:@<@[@}@|@1@2@3@.   ",
". >@4@5@6@7@8@9@0@a@b@c@d@e@f@g@h@i@j@k@l@m@n@. ",
". o@p@q@r@s@t@u@v@w@x@y@z@A@B@C@D@E@F@G@H@I@J@. ",
"  . K@L@M@N@M@O@P@Q@R@S@T@U@V@W@X@Y@Z@`@ #.#.   ",
"    . . . . . . . . . . . . . . . . . . . .     "};
