/* XPM */
static char * shard_xpm[] = {
"20 20 8 1",
" 	c None",
".	c #FFFFFF",
"+	c #000000",
"@	c #4F4F4F",
"#	c #ABABAB",
"$	c #01C401",
"%	c #C40101",
"&	c #767676",
"                    ",
"          +   @@@@# ",
"          +   @$%&# ",
"  @@@@#   +   @&&&# ",
"  @$%&#   ++++@&&&# ",
"  @&&&#   +   @&&&# ",
"  @&&&#++++   @&&&# ",
"  @&&&#   +   @#### ",
"  @&&&#   +         ",
"  @####   +         ",
"          +   @@@@# ",
"          +   @$%&# ",
"  @@@@#   +   @&&&# ",
"  @$%&#   ++++@&&&# ",
"  @&&&#   +   @&&&# ",
"  @&&&#++++   @&&&# ",
"  @&&&#   +   @#### ",
"  @&&&#   +         ",
"  @####   +         ",
"                    "};
