/* XPM */
static char * as_off[] = {
"24 24 68 1",
" 	c None",
".	c #730000",
"+	c #960000",
"@	c #FFFFFF",
"#	c #FFE47B",
"$	c #B90000",
"%	c #B20000",
"&	c #DFDFDF",
"*	c #FF7D7D",
"=	c #D90000",
"-	c #FF0000",
";	c #E10000",
">	c #585858",
",	c #E8E8E8",
"'	c #C9C9C9",
")	c #929292",
"!	c #FF2A2A",
"~	c #F10000",
"{	c #212121",
"]	c #4F4F4F",
"^	c #838383",
"/	c #E3E3E3",
"(	c #A1A1A1",
"_	c #787878",
":	c #626262",
"<	c #141414",
"[	c #343434",
"}	c #909090",
"|	c #E2E2E2",
"1	c #949494",
"2	c #686868",
"3	c #AC0000",
"4	c #EE0000",
"5	c #6F6F6F",
"6	c #959595",
"7	c #8E8E8E",
"8	c #E7E7E7",
"9	c #6A6A6A",
"0	c #939393",
"a	c #818181",
"b	c #5C5C5C",
"c	c #1B1B1B",
"d	c #5B5B5B",
"e	c #191919",
"f	c #444444",
"g	c #858585",
"h	c #363636",
"i	c #ABABAB",
"j	c #848484",
"k	c #636363",
"l	c #E1E1E1",
"m	c #868686",
"n	c #565656",
"o	c #A3A3A3",
"p	c #8C8C8C",
"q	c #C2C2C2",
"r	c #757575",
"s	c #999999",
"t	c #525252",
"u	c #9A9A9A",
"v	c #BFBFBF",
"w	c #C0C0C0",
"x	c #B9B9B9",
"y	c #131313",
"z	c #2D2D2D",
"A	c #606060",
"B	c #7B7B7B",
"C	c #727272",
"          ...+          ",
"         .@#+$%         ",
"        &.*$=-;>        ",
"      ,').+=!*~{]^      ",
"     /(_:+$-*#*<[_}     ",
"    |12   3=4*   567    ",
"   8(9            0)a   ",
" ...+              ...+ ",
".@#+$%            .@#+$%",
".*$=-;    ...+    .*$=-;",
".+=!*~   .@#$$%   .+=!*~",
"+$-*#*   .*$=-;   +$-*#*",
" 3=4*    .$=!*~    3=4* ",
"  bc     +$-*#*     de  ",
"  7f      3=4*      gh  ",
"  ijk              lmn  ",
"   op              qr   ",
"   s...+        ...+k   ",
"   .@#+$%      .@#+$%   ",
"   .*$=-;      .*$=-;   ",
"   .+=!*~{tuvwx.+=!*~   ",
"   +$-*#*yzAB_C+$-*#*   ",
"    3=4*        3=4*    ",
"                        "};
