/* XPM */
static char * as_on[] = {
"24 24 91 1",
" 	c None",
".	c #1A741A",
"+	c #075607",
"@	c #058002",
"#	c #0FA005",
"$	c #177517",
"%	c #FFFFFF",
"&	c #D2E0D2",
"*	c #0F670F",
"=	c #189D0B",
"-	c #3BBD28",
";	c #CACFF4",
">	c #085F08",
",	c #C8D8C8",
"'	c #84C482",
")	c #016E01",
"!	c #26B318",
"~	c #52CE3C",
"{	c #43476D",
"]	c #D7D8F9",
"^	c #A6ADED",
"/	c #4B56DA",
"(	c #068502",
"_	c #006600",
":	c #007200",
"<	c #0CAB05",
"[	c #5DD65A",
"}	c #76E077",
"|	c #14162E",
"1	c #353969",
"2	c #505AB6",
"3	c #D0D3F7",
"4	c #646EDF",
"5	c #404AB0",
"6	c #3D4387",
"7	c #12A407",
"8	c #14A308",
"9	c #21B913",
"0	c #65D762",
"a	c #CFF5CE",
"b	c #94E693",
"c	c #0C0D1C",
"d	c #1D224B",
"e	c #464CAA",
"f	c #535FCD",
"g	c #CFD3F6",
"h	c #4E59DB",
"i	c #3C4495",
"j	c #3BC228",
"k	c #55D757",
"l	c #8AE488",
"m	c #A3E9A3",
"n	c #40499E",
"o	c #5560D6",
"p	c #525FCA",
"q	c #D6D7F9",
"r	c #3D4598",
"s	c #5360D4",
"t	c #525CD3",
"u	c #4C56B7",
"v	c #494C6F",
"w	c #0F1128",
"x	c #484C6F",
"y	c #0E1025",
"z	c #7378AA",
"A	c #242A64",
"B	c #6167AA",
"C	c #1F234E",
"D	c #8089D6",
"E	c #515AB7",
"F	c #39418E",
"G	c #CCCFF6",
"H	c #414BCB",
"I	c #363A77",
"J	c #6D74DA",
"K	c #4F5AC9",
"L	c #989FEC",
"M	c #414AAA",
"N	c #5C68D6",
"O	c #404786",
"P	c #393D6C",
"Q	c #727AC2",
"R	c #979EE8",
"S	c #979EE9",
"T	c #8A92E8",
"U	c #0B0D1B",
"V	c #1A1D40",
"W	c #363C8A",
"X	c #444CB3",
"Y	c #434BAD",
"Z	c #414AA3",
"          .+@#          ",
"         $%&*=-         ",
"        ;>,')!~{        ",
"      ]^/(_:<[}|12      ",
"     34567890abcdef     ",
"    ghi   jklm   nop    ",
"   q4r            stu   ",
" .+@#              .+@# ",
"$%&*=-            $%&*=-",
">,')!~    .+@#    >,')!~",
"(_:<[}   $%&*=-   (_:<[}",
"7890ab   >,')!~   7890ab",
" jklm    (_:<[}    jklm ",
"  vw     7890ab     xy  ",
"  zA      jklm      BC  ",
"  DEF              GHI  ",
"   JK              LM   ",
"   N.+@#        .+@#O   ",
"   $%&*=-      $%&*=-   ",
"   >,')!~      >,')!~   ",
"   (_:<[}|PQRST(_:<[}   ",
"   7890abUVWXYZ7890ab   ",
"    jklm        jklm    ",
"                        "};
