/* XPM */
static char * world_xpm[] = {
"20 20 3 1",
" 	c None",
".	c #0000FF",
"@	c #008000",
"                    ",
"       ......       ",
"     ..........     ",
"    ............    ",
"   @@@......@....   ",
"  @@.@@@@@.@@.....  ",
"  @...@@@@@@@.....  ",
" .....@@@@@@@.....@ ",
" .....@@@@@@@.....@ ",
" ......@@@@@.....@@ ",
" ........@.@.....@@ ",
" ......@@@@.@.....@ ",
" ......@@@@.......@ ",
"  ......@@@@......  ",
"  .......@@@@.....  ",
"   ........@@....   ",
"    ............    ",
"     ..........     ",
"       ..@@..       ",
"                    "};
