/* XPM */
static char * internet[] = {
"24 24 429 2",
"  	c None",
". 	c #7C9E92",
"+ 	c #779B8F",
"@ 	c #72978A",
"# 	c #6C9285",
"$ 	c #648D7E",
"% 	c #5E7C94",
"& 	c #83A498",
"* 	c #82A397",
"= 	c #D7F6EB",
"- 	c #BFEFDE",
"; 	c #88DFBF",
"> 	c #6ACDAA",
", 	c #638C7D",
"' 	c #DAF0FF",
") 	c #52728C",
"! 	c #476985",
"~ 	c #3C607D",
"{ 	c #98E2C7",
"] 	c #8AE1C2",
"^ 	c #86E1C0",
"/ 	c #84DABC",
"( 	c #80CCB0",
"_ 	c #75BBA3",
": 	c #6C9385",
"< 	c #E6F5FF",
"[ 	c #D0ECFF",
"} 	c #B2DFFF",
"| 	c #AADDFF",
"1 	c #90D0FB",
"2 	c #294D6B",
"3 	c #819AAC",
"4 	c #DDF1FF",
"5 	c #87A99C",
"6 	c #8EB0A4",
"7 	c #91B6AA",
"8 	c #92B9AC",
"9 	c #8BB5A7",
"0 	c #7EA99A",
"a 	c #F4FDFF",
"b 	c #CFEEFF",
"c 	c #89D0FF",
"d 	c #6FB1DF",
"e 	c #61A0CC",
"f 	c #579ACA",
"g 	c #4F99CD",
"h 	c #173958",
"i 	c #7B9E91",
"j 	c #7FA195",
"k 	c #CFF3FF",
"l 	c #EEFAFF",
"m 	c #F5FBFF",
"n 	c #F6FCFF",
"o 	c #F7FCFF",
"p 	c #E3FAFF",
"q 	c #9ADCFF",
"r 	c #72AED8",
"s 	c #5E91B5",
"t 	c #306451",
"u 	c #215543",
"v 	c #144735",
"w 	c #3980B5",
"x 	c #052A4B",
"y 	c #73988B",
"z 	c #D1F5E8",
"A 	c #8CE8C7",
"B 	c #8DB5A7",
"C 	c #E5F8FF",
"D 	c #EDF8FF",
"E 	c #ECF8FF",
"F 	c #EAF8FF",
"G 	c #E4F8FF",
"H 	c #D5F7FF",
"I 	c #B5F6FF",
"J 	c #86D0FC",
"K 	c #6AA4CB",
"L 	c #366957",
"M 	c #C4EADD",
"N 	c #AAD8C8",
"O 	c #70BCA2",
"P 	c #023724",
"Q 	c #023322",
"R 	c #6A9183",
"S 	c #C4F0E1",
"T 	c #8DE8C6",
"U 	c #83D8BA",
"V 	c #92BEAE",
"W 	c #EEF9FF",
"X 	c #C9F4FF",
"Y 	c #C1F2FB",
"Z 	c #BBF1FA",
"` 	c #B5F1FB",
" .	c #ABF3FC",
"..	c #98E8FE",
"+.	c #7FCBFC",
"@.	c #67A8D6",
"#.	c #2D624F",
"$.	c #73D3B2",
"%.	c #63C3A2",
"&.	c #45B089",
"*.	c #5DAD90",
"=.	c #5AA78D",
"-.	c #118F63",
";.	c #023222",
">.	c #638D7E",
",.	c #A5ECD4",
"'.	c #74D7B4",
").	c #83B1A1",
"!.	c #F3FAFF",
"~.	c #E1F7FF",
"{.	c #B8EFF8",
"].	c #AFE0F2",
"^.	c #A8D9F1",
"/.	c #A0D5F2",
"(.	c #95D3F6",
"_.	c #87D0FB",
":.	c #76C6FD",
"<.	c #65B4E9",
"[.	c #205945",
"}.	c #0EAF76",
"|.	c #009662",
"1.	c #008D5B",
"2.	c #159266",
"3.	c #108D60",
"4.	c #00724C",
"5.	c #023020",
"6.	c #5C8778",
"7.	c #ABF4DA",
"8.	c #6FD9B4",
"9.	c #7AAD9A",
"0.	c #DFF8FF",
"a.	c #B0F1FB",
"b.	c #A3D5F1",
"c.	c #82B5A2",
"d.	c #7BAF9C",
"e.	c #6DA390",
"f.	c #5B8F7D",
"g.	c #73BBEC",
"h.	c #6AC0F9",
"i.	c #62BFFF",
"j.	c #52B7FD",
"k.	c #02402A",
"l.	c #00744C",
"m.	c #006B45",
"n.	c #00744E",
"o.	c #007B50",
"p.	c #006F47",
"q.	c #022D1E",
"r.	c #4D7B6A",
"s.	c #B6EFDB",
"t.	c #A2F5D8",
"u.	c #64DBB2",
"v.	c #6CA28F",
"w.	c #B6F5FF",
"x.	c #9CE1F7",
"y.	c #71A895",
"z.	c #F5FCFA",
"A.	c #C5FAF1",
"B.	c #65DFB4",
"C.	c #336854",
"D.	c #5EB9F9",
"E.	c #5CBDFF",
"F.	c #57B8FA",
"G.	c #5EABE4",
"H.	c #022F1E",
"I.	c #006943",
"J.	c #00764E",
"K.	c #00734C",
"L.	c #006944",
"M.	c #012C1E",
"N.	c #417060",
"O.	c #91E3C5",
"P.	c #7DE9C3",
"Q.	c #53DBAB",
"R.	c #58927F",
"S.	c #94EEFC",
"T.	c #88CFF5",
"U.	c #5B9682",
"V.	c #CAFAF6",
"W.	c #A7F9E0",
"X.	c #6BE1B7",
"Y.	c #2BC28C",
"Z.	c #1D5743",
"`.	c #4EB3F8",
" +	c #45ADF6",
".+	c #48A5E5",
"++	c #549BCE",
"@+	c #508EBA",
"#+	c #3278AC",
"$+	c #01291A",
"%+	c #067751",
"&+	c #00734A",
"*+	c #005D3C",
"=+	c #012B1C",
"-+	c #346453",
";+	c #73D2B0",
">+	c #64D8AF",
",+	c #3DD29F",
"'+	c #41D3A0",
")+	c #44826C",
"!+	c #71BAEC",
"~+	c #3F7C67",
"{+	c #AAFADE",
"]+	c #58D9AC",
"^+	c #22C38A",
"/+	c #13B37A",
"(+	c #049C67",
"_+	c #023F29",
":+	c #48A1E1",
"<+	c #4191CB",
"[+	c #3C84B8",
"}+	c #3073A6",
"|+	c #265B85",
"1+	c #012619",
"2+	c #257C5F",
"3+	c #00754D",
"4+	c #005E3D",
"5+	c #285747",
"6+	c #63C5A2",
"7+	c #4DC59B",
"8+	c #29C28E",
"9+	c #2AC990",
"0+	c #2C6751",
"a+	c #286550",
"b+	c #D2FBEF",
"c+	c #90E5C7",
"d+	c #33C692",
"e+	c #07B477",
"f+	c #009C66",
"g+	c #007A50",
"h+	c #8AB5D4",
"i+	c #4685B4",
"j+	c #296390",
"k+	c #214B6F",
"l+	c #012317",
"m+	c #338165",
"n+	c #008355",
"o+	c #007047",
"p+	c #013823",
"q+	c #1D4E3C",
"r+	c #44B38C",
"s+	c #2EB082",
"t+	c #18B07B",
"u+	c #28BA86",
"v+	c #62D0AA",
"w+	c #A0E3CA",
"x+	c #8EDCC0",
"y+	c #3FC495",
"z+	c #0BB075",
"A+	c #009B64",
"B+	c #00754C",
"C+	c #005A3B",
"D+	c #95AEC2",
"E+	c #4678A0",
"F+	c #2B6796",
"G+	c #255A84",
"H+	c #1E486A",
"I+	c #012216",
"J+	c #2F8667",
"K+	c #009260",
"L+	c #008F5D",
"M+	c #014A2F",
"N+	c #124533",
"O+	c #11A06E",
"P+	c #0A9E6A",
"Q+	c #07A06B",
"R+	c #11A873",
"S+	c #24B07F",
"T+	c #34B386",
"U+	c #24AD7C",
"V+	c #09A06C",
"W+	c #009561",
"X+	c #008154",
"Y+	c #005D3D",
"Z+	c #012C1C",
"`+	c #96AABC",
" @	c #61809A",
".@	c #396A90",
"+@	c #275C86",
"@@	c #214F72",
"#@	c #1C4161",
"$@	c #369475",
"%@	c #00A76C",
"&@	c #00A46A",
"*@	c #015939",
"=@	c #043825",
"-@	c #0A9B67",
";@	c #079664",
">@	c #009660",
",@	c #009460",
"'@	c #00925F",
")@	c #008E5C",
"!@	c #008859",
"~@	c #007F53",
"{@	c #006945",
"]@	c #004D32",
"^@	c #012418",
"/@	c #859AAD",
"(@	c #446A88",
"_@	c #2A5A81",
":@	c #225075",
"<@	c #1D4061",
"[@	c #193957",
"}@	c #012417",
"|@	c #56B192",
"1@	c #00BC76",
"2@	c #016B45",
"3@	c #023422",
"4@	c #1B976C",
"5@	c #0D9062",
"6@	c #00895A",
"7@	c #008658",
"8@	c #007F54",
"9@	c #00784E",
"0@	c #006743",
"a@	c #003D27",
"b@	c #012016",
"c@	c #8292A2",
"d@	c #375C7D",
"e@	c #235379",
"f@	c #204D71",
"g@	c #1D4264",
"h@	c #012217",
"i@	c #5DA58C",
"j@	c #32D79D",
"k@	c #00CD86",
"l@	c #016744",
"m@	c #008457",
"n@	c #007E52",
"o@	c #007D51",
"p@	c #007C52",
"q@	c #00774D",
"r@	c #006E47",
"s@	c #00472F",
"t@	c #003A26",
"u@	c #012015",
"v@	c #90969F",
"w@	c #506479",
"x@	c #2F5475",
"y@	c #25547D",
"z@	c #265B84",
"A@	c #265F8A",
"B@	c #012F1E",
"C@	c #00B574",
"D@	c #00C981",
"E@	c #00B974",
"F@	c #015738",
"G@	c #022E1F",
"H@	c #006A44",
"I@	c #006441",
"J@	c #005E3C",
"K@	c #004C32",
"L@	c #003926",
"M@	c #011F15",
"N@	c #8D929A",
"O@	c #576879",
"P@	c #3A5B76",
"Q@	c #29597F",
"R@	c #28618B",
"S@	c #2E6FA2",
"T@	c #368BC6",
"U@	c #46B2F1",
"V@	c #015E3D",
"W@	c #00C380",
"X@	c #01613E",
"Y@	c #022C1D",
"Z@	c #005335",
"`@	c #00452C",
" #	c #004029",
".#	c #003C27",
"+#	c #012116",
"@#	c #011F14",
"##	c #838892",
"$#	c #5B6C7E",
"%#	c #3C617F",
"&#	c #2B5F87",
"*#	c #2A6594",
"=#	c #2F75AA",
"-#	c #3891CE",
";#	c #45B6F2",
">#	c #51D8F3",
",#	c #5BEDF5",
"'#	c #016745",
")#	c #01291C",
"!#	c #012318",
"~#	c #78838F",
"{#	c #73818F",
"]#	c #63798F",
"^#	c #456E90",
"/#	c #306C99",
"(#	c #2D6EA2",
"_#	c #3179AE",
":#	c #3791CD",
"<#	c #43B4F0",
"[#	c #4DC6F1",
"}#	c #48C6F0",
"|#	c #025493",
"1#	c #021D36",
"2#	c #3D729B",
"3#	c #316FA0",
"4#	c #2F74A7",
"5#	c #2F72A5",
"6#	c #2C6B9E",
"7#	c #2C6DA0",
"8#	c #3076AB",
"9#	c #3281B8",
"0#	c #3688C7",
"a#	c #3D9DE3",
"b#	c #44C0EF",
"c#	c #4BC7F1",
"d#	c #02508B",
"e#	c #031D39",
"f#	c #03233F",
"g#	c #04274C",
"h#	c #2A699A",
"i#	c #266496",
"j#	c #2A71A2",
"k#	c #3288BF",
"l#	c #3CA5E9",
"m#	c #48C5EE",
"n#	c #0265AB",
"o#	c #0262A4",
"p#	c #024F89",
"q#	c #034F85",
"r#	c #035492",
"s#	c #035DA1",
"t#	c #036EBA",
"u#	c #0279C5",
"v#	c #0271BB",
"                  . + @ # $ %                   ",
"            & * * = - ; > , ' ) ! ~             ",
"          * { ] ^ / ( _ : < [ } | 1 2           ",
"        3 4 5 6 7 8 9 0 a b c d e f g h         ",
"      i j k l m n n o o p q r s t u v w x       ",
"    y z A B C D E F G H I J K L M N O P Q Q     ",
"  R S T U V W X Y Z `  ...+.@.#.$.%.&.*.=.-.;.  ",
"  >.,.'.).!.~.{.].^./.(._.:.<.[.}.|.1.2.3.4.5.  ",
"  6.7.8.9.0.a.b.c.d.e.f.g.h.i.j.k.l.m.n.o.p.q.  ",
"r.s.t.u.v.w.x.y.z.z.A.B.C.D.E.F.G.Q H.I.J.K.L.M.",
"N.O.P.Q.R.S.T.U.V.W.X.Y.Z.`. +.+++@+#+$+%+&+*+=+",
"-+;+>+,+'+)+!+~+{+]+^+/+(+_+:+<+[+}+|+1+2+3+4+M.",
"5+6+7+8+9+0+a+b+c+d+e+f+g+P h+i+}+j+k+l+m+n+o+p+",
"q+r+s+t+u+v+w+x+y+z+A+B+C+H.D+E+F+G+H+I+J+K+L+M+",
"N+O+P+Q+R+S+T+U+V+W+X+Y+Z+`+ @.@+@@@#@l+$@%@&@*@",
"  =@-@;@>@,@'@)@!@~@{@]@^@/@(@_@:@<@[@}@|@1@2@  ",
"  3@4@5@6@7@n+8@9@0@]@a@b@c@d@e@f@g@h@i@j@k@l@  ",
"  Q m@n@o@p@q@r@Y+s@t@u@v@w@x@y@z@A@B@C@D@E@F@  ",
"    G@H@0@I@J@K@a@L@M@N@O@P@Q@R@S@T@U@V@W@X@    ",
"      Y@Z@`@ #.#+#@###$#%#&#*#=#-#;#>#,#'#      ",
"        )#1+!#h@~#{#]#^#/#(#_#:#<#[#}#|#        ",
"          1#2#3#4#5#6#7#8#9#0#a#b#c#d#          ",
"            e#f#g#h#i#j#k#l#m#n#o#p#            ",
"                  q#r#s#t#u#v#                  "};
