/* XPM */
static char * s_off[] = {
"24 24 259 2",
"  	c None",
". 	c #FF5B3B",
"+ 	c #FF7357",
"@ 	c #FFC6BB",
"# 	c #FF866C",
"$ 	c #969696",
"% 	c #929292",
"& 	c #878787",
"* 	c #737373",
"= 	c #6B6B6B",
"- 	c #5F5F5F",
"; 	c #FFEDE8",
"> 	c #FFB8AA",
", 	c #FF694B",
"' 	c #FFA18C",
") 	c #A7A7A7",
"! 	c #ADADAD",
"~ 	c #A9A9A9",
"{ 	c #989898",
"] 	c #939393",
"^ 	c #919191",
"/ 	c #757575",
"( 	c #FFF8F5",
"_ 	c #FFEAE7",
": 	c #FF684C",
"< 	c #FF8268",
"[ 	c #FFBCA6",
"} 	c #9C9C9C",
"| 	c #BABABA",
"1 	c #D8D8D8",
"2 	c #DEDEDE",
"3 	c #D3D3D3",
"4 	c #B9B9B9",
"5 	c #9F9F9F",
"6 	c #DABABA",
"7 	c #FFF7F5",
"8 	c #FFE6E2",
"9 	c #FF3E20",
"0 	c #FF5532",
"a 	c #FFB096",
"b 	c #141414",
"c 	c #9E9E9E",
"d 	c #CBCBCB",
"e 	c #EBEBEB",
"f 	c #FCFCFC",
"g 	c #F6F6F6",
"h 	c #DBDBDB",
"i 	c #D9C0BA",
"j 	c #FFF4F2",
"k 	c #FDEEE8",
"l 	c #FBC7BE",
"m 	c #FD1800",
"n 	c #FF6B47",
"o 	c #FFBAA1",
"p 	c #151515",
"q 	c #1D1D1D",
"r 	c #353535",
"s 	c #BCBCBC",
"t 	c #ECECEC",
"u 	c #FFFFFF",
"v 	c #FBFBFB",
"w 	c #E2D7CC",
"x 	c #FFF2EF",
"y 	c #FFF1EE",
"z 	c #FDDBD6",
"A 	c #EB8D7B",
"B 	c #E51700",
"C 	c #FF795A",
"D 	c #FFB89E",
"E 	c #BE513D",
"F 	c #222222",
"G 	c #313131",
"H 	c #393939",
"I 	c #A6A6A6",
"J 	c #D7D7D7",
"K 	c #FFF7F7",
"L 	c #FFF8F6",
"M 	c #FFE9E6",
"N 	c #FFC8BF",
"O 	c #EB6B52",
"P 	c #B71300",
"Q 	c #FF7351",
"R 	c #FFB194",
"S 	c #BE513C",
"T 	c #212121",
"U 	c #3A3A3A",
"V 	c #464646",
"W 	c #323232",
"X 	c #DFDFDF",
"Y 	c #FBFBF6",
"Z 	c #FFF9F7",
"` 	c #FFDFD8",
" .	c #FFA797",
"..	c #F6573A",
"+.	c #A70E00",
"@.	c #D23D1F",
"#.	c #FF714D",
"$.	c #B1412B",
"%.	c #3F3F3F",
"&.	c #555555",
"*.	c #535353",
"=.	c #3D3D3D",
"-.	c #F8D7D3",
";.	c #FFF2F2",
">.	c #FFE9E4",
",.	c #FFC0B4",
"'.	c #FF8168",
").	c #F73D19",
"!.	c #B21100",
"~.	c #A91900",
"{.	c #BD2F15",
"].	c #6E291A",
"^.	c #232323",
"/.	c #414141",
"(.	c #5E5E5E",
"_.	c #656565",
":.	c #585858",
"<.	c #434343",
"[.	c #2C2C2C",
"}.	c #1B1B1B",
"|.	c #FF6649",
"1.	c #FF421F",
"2.	c #F71900",
"3.	c #FE2000",
"4.	c #F12400",
"5.	c #BE1C00",
"6.	c #A51100",
"7.	c #A51800",
"8.	c #AD1E00",
"9.	c #B8280D",
"0.	c #B32A11",
"a.	c #713F35",
"b.	c #696969",
"c.	c #6A6A6A",
"d.	c #424242",
"e.	c #2D2D2D",
"f.	c #202020",
"g.	c #868686",
"h.	c #9B412F",
"i.	c #F95D40",
"j.	c #F65C3D",
"k.	c #DF3D1F",
"l.	c #B62405",
"m.	c #A20E00",
"n.	c #A20A00",
"o.	c #A51000",
"p.	c #B91900",
"q.	c #E12100",
"r.	c #FF2C02",
"s.	c #FC2700",
"t.	c #ED310C",
"u.	c #704035",
"v.	c #2A2A2A",
"w.	c #1E1E1E",
"x.	c #727272",
"y.	c #8F8F8F",
"z.	c #787878",
"A.	c #575757",
"B.	c #363636",
"C.	c #8C2614",
"D.	c #950E00",
"E.	c #AF1F02",
"F.	c #BF2B0E",
"G.	c #C52100",
"H.	c #E82500",
"I.	c #F42600",
"J.	c #FF2B02",
"K.	c #FF411B",
"L.	c #FF6644",
"M.	c #FF7254",
"N.	c #303030",
"O.	c #252525",
"P.	c #1A1A1A",
"Q.	c #979797",
"R.	c #505050",
"S.	c #D96451",
"T.	c #DD4629",
"U.	c #DC1A00",
"V.	c #FF2F06",
"W.	c #FF4520",
"X.	c #FF6242",
"Y.	c #FF997A",
"Z.	c #FFB197",
"`.	c #C24830",
" +	c #636363",
".+	c #7A7A7A",
"++	c #838383",
"@+	c #6D6D6D",
"#+	c #FCD2CA",
"$+	c #EBAA9D",
"%+	c #F13612",
"&+	c #FF2F05",
"*+	c #FE5131",
"=+	c #FF7256",
"-+	c #FF8565",
";+	c #121212",
">+	c #101010",
",+	c #646464",
"'+	c #6E6E6E",
")+	c #FFFEFE",
"!+	c #FFEEEA",
"~+	c #D15136",
"{+	c #E92203",
"]+	c #FA664B",
"^+	c #FF9177",
"/+	c #FF8666",
"(+	c #923826",
"_+	c #262626",
":+	c #2B2B2B",
"<+	c #181818",
"[+	c #525252",
"}+	c #545454",
"|+	c #606060",
"1+	c #686868",
"2+	c #FFF3F0",
"3+	c #E94B2E",
"4+	c #A71C0B",
"5+	c #FF6E52",
"6+	c #FFB092",
"7+	c #FFB19A",
"8+	c #45221A",
"9+	c #292929",
"0+	c #2E2E2E",
"a+	c #FFE9E5",
"b+	c #E91A03",
"c+	c #DB4524",
"d+	c #FF8066",
"e+	c #FFAE91",
"f+	c #903B2A",
"g+	c #383838",
"h+	c #242424",
"i+	c #4A4A4A",
"j+	c #FFFFFE",
"k+	c #FFC8BE",
"l+	c #F21700",
"m+	c #FF6C4F",
"n+	c #FFA88E",
"o+	c #D64F38",
"p+	c #333333",
"q+	c #343434",
"r+	c #FFF2EE",
"s+	c #FF846E",
"t+	c #FD1F09",
"u+	c #FF8F72",
"v+	c #FFAD93",
"w+	c #FFD7CE",
"x+	c #FF7257",
"y+	c #FF7F64",
"z+	c #FFB8A2",
"A+	c #371A14",
"B+	c #171717",
"C+	c #272727",
"D+	c #191919",
"E+	c #1F1F1F",
"F+	c #FFA08E",
"G+	c #FF5737",
"H+	c #FF8269",
"I+	c #FF6547",
"J+	c #FA5D3F",
"                                        . +     ",
"                                    @ . #       ",
"                  $ % & * = -   ; > , '         ",
"              ) ! ~ { ] ^ / ( _ : < [           ",
"          } | 1 2 3 4 5 6 7 8 9 0 a b           ",
"        c d e f g h i j k l m n o p q r         ",
"        s t u v w x y z A B C D E F G H         ",
"      I J f v K L M N O P Q R S T U V r W       ",
"      ! X g Y Z `  ...+.@.#.$.F %.&.*.=.r       ",
"    $ ~ -.;.>.,.'.).!.~.{.].^./.(._.:.<.[.}.    ",
"    % { |.1.2.3.4.5.6.7.8.9.0.a.b.c.:.d.e.f.    ",
"    & ] g.h.i.j.k.l.m.n.o.p.q.r.s.t.u.%.v.w.    ",
"    x.^ y.z.A.B.C.D.E.F.G.H.I.J.K.L.M.N.O.P.    ",
"    = / y.Q.g.b.R.%.S.T.U.V.W.X.Y.Z.`.T q p     ",
"    (. +.+g.++z.@+#+$+%+&+*+=+R -+}.w.f.;+>+    ",
"      (.,+'+x.* )+!+~+{+]+^+D /+(+_+:+P.<+      ",
"      [+}+|+1+u 2+3+4+5+6+7+8+f.9+0+F >+b       ",
"        R.R.u a+b+c+d+e+f+q :+g+B.h+b P.        ",
"        i+j+k+l+m+n+o+}.O.p+U q+h+>+>+O.        ",
"        r+s+t+u+v+p q 9+W p+:+}.>+<+v.          ",
"      w+x+y+z+A+B+P.^.C+_+f.p D+E+              ",
"    F+G+H+        D+E+w.P.p p                   ",
"  I+J+                                          ",
"                                                "};
