/* XPM */
static char * s_on[] = {
"24 24 321 2",
"  	c None",
". 	c #43AF05",
"+ 	c #4BBD29",
"@ 	c #AFDC95",
"# 	c #40AF03",
"$ 	c #54C848",
"% 	c #FFB215",
"& 	c #FF9C12",
"* 	c #FF8512",
"= 	c #E87412",
"- 	c #DA6912",
"; 	c #C75C12",
"> 	c #DBEFCF",
", 	c #9FD680",
"' 	c #46B819",
") 	c #5ED469",
"! 	c #FFCC3E",
"~ 	c #FFC748",
"{ 	c #FFC238",
"] 	c #FFB91B",
"^ 	c #FFA713",
"/ 	c #FF9812",
"( 	c #ED7912",
"_ 	c #FAFCF9",
": 	c #F2FBEC",
"< 	c #57C516",
"[ 	c #50C238",
"} 	c #66DE84",
"| 	c #FEBF35",
"1 	c #FFCA65",
"2 	c #FBD18C",
"3 	c #FAD294",
"4 	c #FFCF79",
"5 	c #FFC549",
"6 	c #FFB620",
"7 	c #F7D38D",
"8 	c #EFFAE2",
"9 	c #1EA70D",
"0 	c #29C419",
"a 	c #4AF9A0",
"b 	c #190A03",
"c 	c #FEBE36",
"d 	c #FFD173",
"e 	c #F3D8AD",
"f 	c #EDDCC3",
"g 	c #F8D9A8",
"h 	c #FFCE6E",
"i 	c #F8D06B",
"j 	c #F7FAF5",
"k 	c #F7FAF3",
"l 	c #D3F3BA",
"m 	c #138905",
"n 	c #36CE2B",
"o 	c #55F8A8",
"p 	c #1C0D03",
"q 	c #3F1A07",
"r 	c #6F2D0D",
"s 	c #FFCB66",
"t 	c #F1D9AF",
"u 	c #EBDFCE",
"v 	c #F5D9AC",
"w 	c #FBCD66",
"x 	c #F6F9EF",
"y 	c #F9FAF3",
"z 	c #E8F9DF",
"A 	c #8BC563",
"B 	c #0F7A03",
"C 	c #3DD939",
"D 	c #53F6A2",
"E 	c #3D8A63",
"F 	c #3E1D06",
"G 	c #77340C",
"H 	c #923C11",
"I 	c #FFCD3D",
"J 	c #FBD48B",
"K 	c #ECDDC4",
"L 	c #F4DAAC",
"M 	c #F8F9F0",
"N 	c #F9FCFA",
"O 	c #F4FAE9",
"P 	c #CBF7B0",
"Q 	c #60B32E",
"R 	c #0D5C04",
"S 	c #3CCE3E",
"T 	c #4BF69A",
"U 	c #3B8A60",
"V 	c #391B05",
"W 	c #75370A",
"X 	c #A14910",
"Y 	c #9E4212",
"Z 	c #803112",
"` 	c #FAD394",
" .	c #F7D9A8",
"..	c #FCF3DF",
"+.	c #FBFDF9",
"@.	c #E7F8D7",
"#.	c #A3E576",
"$.	c #46B424",
"%.	c #0D5101",
"&.	c #2B8C29",
"*.	c #3AC25B",
"=.	c #30834E",
"-.	c #3A1C05",
";.	c #79390A",
">.	c #B0530F",
",.	c #BA5512",
"'.	c #A54512",
").	c #8C3712",
"!.	c #FFB115",
"~.	c #EFECC2",
"{.	c #F6FCF0",
"].	c #F2FBE5",
"^.	c #C0F59B",
"/.	c #70D232",
"(.	c #30A813",
"_.	c #1B6502",
":.	c #206709",
"<.	c #278423",
"[.	c #25481A",
"}.	c #3D1D05",
"|.	c #7C3B0A",
"1.	c #BA5A0F",
"2.	c #D36412",
"3.	c #C45A12",
"4.	c #AA4812",
"5.	c #923912",
"6.	c #631D12",
"7.	c #FF9C13",
"8.	c #51C321",
"9.	c #28AF0B",
"0.	c #109200",
"a.	c #17A004",
"b.	c #1F9B05",
"c.	c #217405",
"d.	c #1D5E01",
"e.	c #206507",
"f.	c #236E0F",
"g.	c #267A1B",
"h.	c #2F7F1B",
"i.	c #944F0C",
"j.	c #CF6510",
"k.	c #DA6812",
"l.	c #C55B12",
"m.	c #AA4912",
"n.	c #923A12",
"o.	c #6B2412",
"p.	c #FE8512",
"q.	c #FFA712",
"r.	c #D89A19",
"s.	c #677A11",
"t.	c #3ECC3D",
"u.	c #3BCA3D",
"v.	c #2FA32E",
"w.	c #247615",
"x.	c #1C5D01",
"y.	c #1C5900",
"z.	c #1C5C01",
"A.	c #217001",
"B.	c #269000",
"C.	c #2FA703",
"D.	c #2AA301",
"E.	c #3CA40A",
"F.	c #A05310",
"G.	c #A04611",
"H.	c #8F3912",
"I.	c #672212",
"J.	c #F1A112",
"K.	c #CB880E",
"L.	c #97560B",
"M.	c #612F07",
"N.	c #306015",
"O.	c #0C4702",
"P.	c #24650C",
"Q.	c #327718",
"R.	c #2A7A0A",
"S.	c #2B9603",
"T.	c #299F00",
"U.	c #2AA703",
"V.	c #32B615",
"W.	c #3BCB30",
"X.	c #3ED23F",
"Y.	c #76320D",
"Z.	c #833211",
"`.	c #631C12",
" +	c #FF9312",
".+	c #FB9D12",
"++	c #E88110",
"@+	c #C55F0F",
"#+	c #9D4B0D",
"$+	c #743809",
"%+	c #61A336",
"&+	c #42962D",
"*+	c #218800",
"=+	c #2CAB08",
"-+	c #32B818",
";+	c #3ACC2F",
">+	c #43E162",
",+	c #4BEE91",
"'+	c #347F46",
")+	c #4C2009",
"!+	c #6F280F",
"~+	c #591912",
"{+	c #D86512",
"]+	c #F17612",
"^+	c #FA8112",
"/+	c #F67D12",
"(+	c #E97112",
"_+	c #D96811",
":+	c #D9F1CA",
"<+	c #B7D49F",
"[+	c #309D0C",
"}+	c #2BA908",
"|+	c #38C527",
"1+	c #40D945",
"2+	c #4AED88",
"3+	c #43BC8D",
"4+	c #241103",
"5+	c #3A1A06",
"6+	c #55220B",
"7+	c #662210",
"8+	c #390512",
"9+	c #C85C12",
"0+	c #D66312",
"a+	c #E36912",
"b+	c #E56C12",
"c+	c #E46E12",
"d+	c #FCFEFB",
"e+	c #F2FAED",
"f+	c #488B24",
"g+	c #1F9308",
"h+	c #3DD038",
"i+	c #45E473",
"j+	c #50F1A0",
"k+	c #2F6844",
"l+	c #492107",
"m+	c #6D2D0C",
"n+	c #6D2810",
"o+	c #5A1812",
"p+	c #B35012",
"q+	c #C15912",
"r+	c #CD5E12",
"s+	c #D76512",
"t+	c #FDFEFC",
"u+	c #F4FBEF",
"v+	c #3C9C14",
"w+	c #12630C",
"x+	c #3ED456",
"y+	c #4BF097",
"z+	c #4EEAAA",
"A+	c #23200F",
"B+	c #381B05",
"C+	c #502607",
"D+	c #6F2F0C",
"E+	c #792D10",
"F+	c #651F12",
"G+	c #390812",
"H+	c #BC5512",
"I+	c #EFFAE6",
"J+	c #137D07",
"K+	c #29A022",
"L+	c #3ED785",
"M+	c #48EDAE",
"N+	c #2A5236",
"O+	c #311704",
"P+	c #552707",
"Q+	c #7B380C",
"R+	c #863A0E",
"S+	c #7C3010",
"T+	c #672012",
"U+	c #531612",
"V+	c #A34512",
"W+	c #CBF8A5",
"X+	c #108303",
"Y+	c #3DCF46",
"Z+	c #47EBA7",
"`+	c #318663",
" @	c #271204",
".@	c #482007",
"+@	c #6F320B",
"@@	c #8B3D0E",
"#@	c #933E11",
"$@	c #843212",
"%@	c #682112",
"&@	c #470F12",
"*@	c #451412",
"=@	c #DFF2D5",
"-@	c #7CD536",
";@	c #129C0B",
">@	c #45E471",
",@	c #4CF5B5",
"'@	c #190B03",
")@	c #351706",
"!@	c #5B280A",
"~@	c #7C350E",
"{@	c #8E3B10",
"]@	c #8D3812",
"^@	c #7C2D12",
"/@	c #641F12",
"(@	c #511512",
"_@	c #441412",
":@	c #C1E5AC",
"<@	c #5CB727",
"[@	c #50C148",
"}@	c #61D78D",
"|@	c #16140B",
"1@	c #240E05",
"2@	c #3E1808",
"3@	c #64280C",
"4@	c #7E3210",
"5@	c #873412",
"6@	c #812F12",
"7@	c #752612",
"8@	c #5E1812",
"9@	c #89CC63",
"0@	c #41AD11",
"a@	c #54C25C",
"b@	c #52170F",
"c@	c #652211",
"d@	c #581712",
"e@	c #50B119",
"f@	c #44AD24",
"                                        . +     ",
"                                    @ # $       ",
"                  % & * = - ;   > , ' )         ",
"              ! ~ { ] ^ / ( _ : < [ }           ",
"          | 1 2 3 4 5 6 7 _ 8 9 0 a b           ",
"        c d e f g h i j k l m n o p q r         ",
"        s t u v w x y z A B C D E F G H         ",
"      I J K L M N O P Q R S T U V W X Y Z       ",
"      ~ `  ...+.@.#.$.%.&.*.=.-.;.>.,.'.).      ",
"    !.{ ~.{.].^./.(._.:.<.[.}.|.1.2.3.4.5.6.    ",
"    7.] 8.9.0.a.b.c.d.e.f.g.h.i.j.k.l.m.n.o.    ",
"    p.q.r.s.t.u.v.w.x.y.z.A.B.C.D.E.F.G.H.I.    ",
"    = / J.K.L.M.N.O.P.Q.R.S.T.U.V.W.X.Y.Z.`.    ",
"    - (  +.+++@+#+$+%+&+*+=+-+;+>+,+'+)+!+~+    ",
"    ; {+]+^+/+(+_+:+<+[+}+|+1+2+3+4+5+6+7+8+    ",
"      9+0+a+b+c+d+e+f+g+h+i+j+3+k+l+m+n+o+      ",
"      p+q+r+s+t+u+v+w+x+y+z+A+B+C+D+E+F+G+      ",
"        p+H+d+I+J+K+L+M+N+O+P+Q+R+S+T+U+        ",
"        V++.W+X+Y+Z+`+ @.@+@@@#@$@%@&@*@        ",
"        =@-@;@>@,@'@)@!@~@{@]@^@/@(@_@          ",
"      :@<@[@}@|@1@2@3@4@5@6@7@8@G+              ",
"    9@0@a@        b@c@I.6.d@8+                  ",
"  e@f@                                          ",
"                                                "};
