/* XPM */
static char * s_ukn_xpm[] = {
"24 24 255 2",
"  	c None",
". 	c #43AF05",
"+ 	c #4BBD29",
"@ 	c #AFDC95",
"# 	c #40AF03",
"$ 	c #54C848",
"% 	c #FF0000",
"& 	c #FF0300",
"* 	c #FF0100",
"= 	c #FE0000",
"- 	c #F7322B",
"; 	c #A9BE71",
"> 	c #46B819",
", 	c #5ED469",
"' 	c #E31E08",
") 	c #66DE84",
"! 	c #FD0101",
"~ 	c #6B0601",
"{ 	c #FE1506",
"] 	c #FE0201",
"^ 	c #FE0606",
"/ 	c #FE0D0D",
"( 	c #FB130E",
"_ 	c #FA0200",
": 	c #F00100",
"< 	c #6F2D0D",
"[ 	c #FE1309",
"} 	c #F7D1C9",
"| 	c #F9FAF3",
"1 	c #E8F9DF",
"2 	c #8BC563",
"3 	c #0F7A03",
"4 	c #6AA52B",
"5 	c #FC0201",
"6 	c #FD0000",
"7 	c #923C11",
"8 	c #FFCD3D",
"9 	c #FE0A07",
"0 	c #FE0707",
"a 	c #F9FCFA",
"b 	c #F4FAE9",
"c 	c #CBF7B0",
"d 	c #60B32E",
"e 	c #0D5C04",
"f 	c #3CCE3E",
"g 	c #6DC67C",
"h 	c #FD0100",
"i 	c #9E4212",
"j 	c #803112",
"k 	c #FFC748",
"l 	c #FB8B62",
"m 	c #FE0C09",
"n 	c #FE0E0D",
"o 	c #FCA7A5",
"p 	c #E7F8D7",
"q 	c #A3E576",
"r 	c #46B424",
"s 	c #0D5101",
"t 	c #2B8C29",
"u 	c #3AC25B",
"v 	c #E2110A",
"w 	c #F20F03",
"x 	c #A54512",
"y 	c #8C3712",
"z 	c #FFB115",
"A 	c #FFC238",
"B 	c #EFECC2",
"C 	c #F6FCF0",
"D 	c #F2FBE5",
"E 	c #C0F59B",
"F 	c #70D232",
"G 	c #30A813",
"H 	c #1B6502",
"I 	c #206709",
"J 	c #278423",
"K 	c #99210C",
"L 	c #FC0000",
"M 	c #FE0100",
"N 	c #CE4A0E",
"O 	c #AA4812",
"P 	c #923912",
"Q 	c #631D12",
"R 	c #FF9C13",
"S 	c #FFB91B",
"T 	c #51C321",
"U 	c #28AF0B",
"V 	c #109200",
"W 	c #17A004",
"X 	c #1F9B05",
"Y 	c #217405",
"Z 	c #1D5E01",
"` 	c #206507",
" .	c #AC2905",
"..	c #FC0100",
"+.	c #FB0901",
"@.	c #C55B12",
"#.	c #AA4912",
"$.	c #923A12",
"%.	c #6B2412",
"&.	c #FE8512",
"*.	c #FFA712",
"=.	c #D89A19",
"-.	c #677A11",
";.	c #3ECC3D",
">.	c #3BCA3D",
",.	c #2FA32E",
"'.	c #247615",
").	c #4B4900",
"!.	c #ED0600",
"~.	c #FA0300",
"{.	c #6E7907",
"].	c #A05310",
"^.	c #A04611",
"/.	c #8F3912",
"(.	c #672212",
"_.	c #E87412",
":.	c #FF9812",
"<.	c #F1A112",
"[.	c #CB880E",
"}.	c #97560B",
"|.	c #612F07",
"1.	c #306015",
"2.	c #0C4702",
"3.	c #EE0700",
"4.	c #8C650B",
"5.	c #3BCB30",
"6.	c #3ED23F",
"7.	c #76320D",
"8.	c #833211",
"9.	c #631C12",
"0.	c #DA6912",
"a.	c #ED7912",
"b.	c #FF9312",
"c.	c #FB9D12",
"d.	c #E88110",
"e.	c #C55F0F",
"f.	c #9D4B0D",
"g.	c #743809",
"h.	c #F70600",
"i.	c #739021",
"j.	c #43E162",
"k.	c #4BEE91",
"l.	c #347F46",
"m.	c #4C2009",
"n.	c #6F280F",
"o.	c #591912",
"p.	c #C75C12",
"q.	c #D86512",
"r.	c #F17612",
"s.	c #FA8112",
"t.	c #F67D12",
"u.	c #E97112",
"v.	c #D96811",
"w.	c #E4A68B",
"x.	c #E51905",
"y.	c #4EC73F",
"z.	c #4AED88",
"A.	c #43BC8D",
"B.	c #241103",
"C.	c #3A1A06",
"D.	c #55220B",
"E.	c #662210",
"F.	c #390512",
"G.	c #C85C12",
"H.	c #D66312",
"I.	c #E36912",
"J.	c #E56C12",
"K.	c #E46E12",
"L.	c #FCFEFB",
"M.	c #FD2624",
"N.	c #52D36A",
"O.	c #50F1A0",
"P.	c #2F6844",
"Q.	c #492107",
"R.	c #6D2D0C",
"S.	c #6D2810",
"T.	c #5A1812",
"U.	c #B35012",
"V.	c #C15912",
"W.	c #CD5E12",
"X.	c #D76512",
"Y.	c #FDFEFC",
"Z.	c #F4FBEF",
"`.	c #EE0D01",
" +	c #4EEAAA",
".+	c #23200F",
"++	c #381B05",
"@+	c #502607",
"#+	c #6F2F0C",
"$+	c #792D10",
"%+	c #651F12",
"&+	c #390812",
"*+	c #BC5512",
"=+	c #EFFAE6",
"-+	c #137D07",
";+	c #C02F0A",
">+	c #311704",
",+	c #552707",
"'+	c #7B380C",
")+	c #863A0E",
"!+	c #7C3010",
"~+	c #672012",
"{+	c #531612",
"]+	c #A34512",
"^+	c #FBFDF9",
"/+	c #CBF8A5",
"(+	c #108303",
"_+	c #3DCF46",
":+	c #66C28A",
"<+	c #CE1F17",
"[+	c #F90000",
"}+	c #9E1003",
"|+	c #6F320B",
"1+	c #8B3D0E",
"2+	c #933E11",
"3+	c #843212",
"4+	c #682112",
"5+	c #470F12",
"6+	c #451412",
"7+	c #DFF2D5",
"8+	c #7CD536",
"9+	c #129C0B",
"0+	c #45E471",
"a+	c #4CF5B5",
"b+	c #190B03",
"c+	c #351706",
"d+	c #5B280A",
"e+	c #7C350E",
"f+	c #8E3B10",
"g+	c #8D3812",
"h+	c #7C2D12",
"i+	c #641F12",
"j+	c #511512",
"k+	c #441412",
"l+	c #C1E5AC",
"m+	c #5CB727",
"n+	c #50C148",
"o+	c #61D78D",
"p+	c #16140B",
"q+	c #240E05",
"r+	c #671206",
"s+	c #DC0802",
"t+	c #F20401",
"u+	c #AF220B",
"v+	c #812F12",
"w+	c #752612",
"x+	c #5E1812",
"y+	c #89CC63",
"z+	c #41AD11",
"A+	c #54C25C",
"B+	c #DD0402",
"C+	c #F70100",
"D+	c #581712",
"E+	c #50B119",
"F+	c #44AD24",
"                                        . +     ",
"                                    @ # $       ",
"                % & * % = = = % - ; > ,         ",
"            % % % % % % % % % % = ' )           ",
"          = % % % % % % = = = % % ! ~           ",
"        { % % % = % ] ^ / ( _ = % = : <         ",
"        * % % = [ } | 1 2 3 4 5 % % 6 7         ",
"      8 9 = = 0 a b c d e f g h % % 6 i j       ",
"      k l m n o p q r s t u v = % = w x y       ",
"    z A B C D E F G H I J K L % % M N O P Q     ",
"    R S T U V W X Y Z `  ...% % = +.@.#.$.%.    ",
"    &.*.=.-.;.>.,.'.).!.6 % % = ~.{.].^./.(.    ",
"    _.:.<.[.}.|.1.2.3.= % % = ~.4.5.6.7.8.9.    ",
"    0.a.b.c.d.e.f.g.h % % = h.i.j.k.l.m.n.o.    ",
"    p.q.r.s.t.u.v.w.= % = x.y.z.A.B.C.D.E.F.    ",
"      G.H.I.J.K.L.M.= % = N.O.A.P.Q.R.S.T.      ",
"      U.V.W.X.Y.Z.`.= % =  +.+++@+#+$+%+&+      ",
"        U.*+L.=+-+;+= % 6 >+,+'+)+!+~+{+        ",
"        ]+^+/+(+_+:+<+[+}+|+1+2+3+4+5+6+        ",
"        7+8+9+0+a+b+c+d+e+f+g+h+i+j+k+          ",
"      l+m+n+o+p+q+r+s+t+u+v+w+x+&+              ",
"    y+z+A+        B+= = C+D+F.                  ",
"  E+F+            % % % %                       ",
"                    % % %                       "};
