/* XPM */
static char * variable_xpm[] = {
"24 24 206 2",
"  	c None",
". 	c #84C380",
"+ 	c #6FB569",
"@ 	c #107706",
"# 	c #62A45D",
"$ 	c #AECCAD",
"% 	c #DAEBDA",
"& 	c #074D03",
"* 	c #288816",
"= 	c #81B47D",
"- 	c #99C097",
"; 	c #DBEDDB",
"> 	c #FBFBFB",
", 	c #325F31",
"' 	c #1A760D",
") 	c #3C9D27",
"! 	c #89B984",
"~ 	c #478044",
"{ 	c #076803",
"] 	c #0A5704",
"^ 	c #033F02",
"/ 	c #2C6628",
"( 	c #0A6504",
"_ 	c #2D971E",
": 	c #44A730",
"< 	c #B4D7B3",
"[ 	c #579251",
"} 	c #2F9619",
"| 	c #4EA42D",
"1 	c #429025",
"2 	c #277713",
"3 	c #0D6906",
"4 	c #297D23",
"5 	c #137D0D",
"6 	c #319B23",
"7 	c #44A731",
"8 	c #C7E4C5",
"9 	c #5DA359",
"0 	c #429C26",
"a 	c #75C04B",
"b 	c #57AF34",
"c 	c #32A41D",
"d 	c #157D0D",
"e 	c #319029",
"f 	c #259F19",
"g 	c #3BA32B",
"h 	c #4EAD38",
"i 	c #ADD3AA",
"j 	c #33A029",
"k 	c #B3D6B2",
"l 	c #B2D3B1",
"m 	c #34931C",
"n 	c #79CA51",
"o 	c #65D740",
"p 	c #45D22C",
"q 	c #26B119",
"r 	c #28AF1D",
"s 	c #3EB82D",
"t 	c #56BD3D",
"u 	c #51B23B",
"v 	c #C8E2C5",
"w 	c #338B2E",
"x 	c #57C240",
"y 	c #73AC70",
"z 	c #BED5BC",
"A 	c #107206",
"B 	c #7CD856",
"C 	c #6BE44D",
"D 	c #62FD42",
"E 	c #50E13A",
"F 	c #64E748",
"G 	c #6BDC4D",
"H 	c #51C03B",
"I 	c #D6EAD3",
"J 	c #257F20",
"K 	c #66D34B",
"L 	c #4AA144",
"M 	c #A9C7A8",
"N 	c #1D6F0F",
"O 	c #84E35D",
"P 	c #84FF5D",
"Q 	c #BEFF8A",
"R 	c #7CF85A",
"S 	c #67D64B",
"T 	c #D0E7CD",
"U 	c #237A1D",
"V 	c #5ECC45",
"W 	c #2C991C",
"X 	c #0A6A05",
"Y 	c #D8E8D7",
"Z 	c #165D0D",
"` 	c #3F982B",
" .	c #88E660",
"..	c #91FF68",
"+.	c #72E753",
"@.	c #AFD9AC",
"#.	c #278F21",
"$.	c #52CD3C",
"%.	c #42A42E",
"&.	c #248415",
"*.	c #1E731B",
"=.	c #3E733C",
"-.	c #0F610A",
";.	c #29851C",
">.	c #45A631",
",.	c #67CB4A",
"'.	c #9FD39B",
").	c #1C8915",
"!.	c #45C935",
"~.	c #62B544",
"{.	c #52A737",
"].	c #369622",
"^.	c #18690E",
"/.	c #2B6928",
"(.	c #146B0E",
"_.	c #359E27",
":.	c #49AA35",
"<.	c #A7D6A3",
"[.	c #26981C",
"}.	c #46CB36",
"|.	c #87B582",
"1.	c #339B28",
"2.	c #75C450",
"3.	c #62B443",
"4.	c #41A32E",
"5.	c #1F8316",
"6.	c #307C2C",
"7.	c #228D19",
"8.	c #3DA72D",
"9.	c #4AAC37",
"0.	c #B2DBAF",
"a.	c #289A1D",
"b.	c #4AC639",
"c.	c #98BE93",
"d.	c #C6DBC4",
"e.	c #2F8E22",
"f.	c #56B13E",
"g.	c #79C653",
"h.	c #66BB45",
"i.	c #45B132",
"j.	c #2FA725",
"k.	c #389233",
"l.	c #2A991E",
"m.	c #3FAA2F",
"n.	c #48AB36",
"o.	c #CBE6C8",
"p.	c #27991D",
"q.	c #5CCD43",
"r.	c #31772B",
"s.	c #1C8614",
"t.	c #5EC141",
"u.	c #77CA54",
"v.	c #7ACA55",
"w.	c #6AC447",
"x.	c #52CB3C",
"y.	c #3EC730",
"z.	c #42A63B",
"A.	c #36B12C",
"B.	c #3EB22F",
"C.	c #5BB751",
"D.	c #CAE4C7",
"E.	c #1F8B16",
"F.	c #67CF4A",
"G.	c #4EA63A",
"H.	c #3C8F28",
"I.	c #3AA127",
"J.	c #AEF29A",
"K.	c #90E064",
"L.	c #7FD559",
"M.	c #6FD84D",
"N.	c #5EEA44",
"O.	c #47DD36",
"P.	c #57D14B",
"Q.	c #4BC640",
"R.	c #37B92C",
"S.	c #78C672",
"T.	c #319726",
"U.	c #6EDA50",
"V.	c #71C94F",
"W.	c #80DC5A",
"X.	c #91DE66",
"Y.	c #7FD85A",
"Z.	c #75EC56",
"`.	c #62F849",
" +	c #4EF640",
".+	c #42DB36",
"++	c #42D235",
"@+	c #4ABF37",
"#+	c #5CBE43",
"$+	c #7EDC5A",
"%+	c #88D85F",
"&+	c #80D95B",
"*+	c #75E453",
"=+	c #6FFF53",
"-+	c #69FF4D",
";+	c #71F953",
">+	c #84F05F",
",+	c #93E567",
"'+	c #82D35A",
")+	c #83E65B",
"!+	c #90FF68",
"~+	c #CEFFB8",
"{+	c #A1F870",
"]+	c #8DD461",
"^+	c #98E46A",
"/+	c #9FE96F",
"                                                ",
"                                                ",
"                  . + @                         ",
"                # $ % & *                       ",
"              = - ; > , ' )                     ",
"            ! ~ { ] ^ / ( _ :                   ",
"          < [ } | 1 2 3 4 5 6 7                 ",
"        8 9 0     a b c d e f g h           i j ",
"      k l m         n o p q r s t u       v w x ",
"    y z A             B C D E F G H     I J K   ",
"  L M % N               O P Q R S     T U V     ",
"W X Y > Z `                ...+.    @.#.$.      ",
"%.&.*.=.-.;.>.              ,.    '.).!.        ",
"~.{.].^./.(._.:.                <.[.}.    |.1.  ",
"  2.3.4.5.6.7.8.9.            0.a.b.    c.d.e.f.",
"    g.h.i.j.k.l.m.n.        o.p.q.    r.d.s.t.u.",
"      v.w.x.y.z.A.B.C.    D.E.F.    G.H.I.J.K.  ",
"        L.M.N.O.P.Q.R.S.'.T.U.        V.W.X.    ",
"          Y.Z.`. +.+++@+#+$+            %+      ",
"            &+*+=+-+;+>+,+                      ",
"              '+)+!+~+{+                        ",
"                ]+^+/+                          ",
"                                                ",
"                                                "};
