/* XPM */
static char * variable_xpm[] = {
"20 20 160 2",
"  	c None",
". 	c #FFFFFF",
"+ 	c #CBC9C6",
"@ 	c #BFBCB8",
"# 	c #B6B3AF",
"$ 	c #A5A19B",
"% 	c #BDBAB6",
"& 	c #FDFDFD",
"* 	c #CFCECA",
"= 	c #BDBBB6",
"- 	c #A29E98",
"; 	c #7B766E",
"> 	c #D8D6D3",
", 	c #FCFCFC",
"' 	c #FEFEFE",
") 	c #CCCBC7",
"! 	c #B0ACA7",
"~ 	c #7F796F",
"{ 	c #9C9790",
"] 	c #C8C6C2",
"^ 	c #F8F8F7",
"/ 	c #F9F9F8",
"( 	c #D6D4D1",
"_ 	c #A7A39D",
": 	c #52493C",
"< 	c #96928C",
"[ 	c #DDDDDB",
"} 	c #F7F7F7",
"| 	c #F8F8F8",
"1 	c #FBFBFB",
"2 	c #635B4E",
"3 	c #B0ACA6",
"4 	c #F3F3F1",
"5 	c #F5F5F3",
"6 	c #F5F5F4",
"7 	c #959087",
"8 	c #696259",
"9 	c #F2F2F1",
"0 	c #F0F0EF",
"a 	c #F0F0F0",
"b 	c #F3F3F3",
"c 	c #F4F4F3",
"d 	c #878176",
"e 	c #665E50",
"f 	c #EDEDEA",
"g 	c #EEEEEA",
"h 	c #F0F0ED",
"i 	c #E9E8E5",
"j 	c #54493A",
"k 	c #A7A59F",
"l 	c #EAEAE8",
"m 	c #E7E7E6",
"n 	c #E8E8E7",
"o 	c #EDEDED",
"p 	c #F9F9F9",
"q 	c #F6F6F6",
"r 	c #C2C0B9",
"s 	c #584B37",
"t 	c #D8D7D0",
"u 	c #E8E8E3",
"v 	c #EAEAE5",
"w 	c #B6B2A7",
"x 	c #3D3527",
"y 	c #D9D9D5",
"z 	c #DFDFDC",
"A 	c #DCDCDA",
"B 	c #DDDDDC",
"C 	c #E5E5E5",
"D 	c #EFEFEF",
"E 	c #F6F6F5",
"F 	c #EDEDEC",
"G 	c #E7E7E4",
"H 	c #817565",
"I 	c #B6B1A5",
"J 	c #E6E6DF",
"K 	c #E8E8E2",
"L 	c #817A6C",
"M 	c #757168",
"N 	c #DEDEDB",
"O 	c #D7D7D4",
"P 	c #D4D4D3",
"Q 	c #D8D8D8",
"R 	c #E1E1E1",
"S 	c #EEEEED",
"T 	c #B3ADA3",
"U 	c #9A9282",
"V 	c #E5E5DE",
"W 	c #D8D7CE",
"X 	c #493F2E",
"Y 	c #A8A6A0",
"Z 	c #D2D2D0",
"` 	c #D7D7D7",
" .	c #E2E2E2",
"..	c #EEEEEE",
"+.	c #E8E8E6",
"@.	c #D7D6D0",
"#.	c #7C705D",
"$.	c #C8C5BA",
"%.	c #A8A296",
"&.	c #40392D",
"*.	c #DCDCD7",
"=.	c #D5D5D2",
"-.	c #D0D0CE",
";.	c #D1D1D0",
">.	c #DADAD9",
",.	c #E4E4E4",
"'.	c #F1F1F1",
").	c #FAFAFA",
"!.	c #ECECEA",
"~.	c #776C5A",
"{.	c #898174",
"].	c #5C5549",
"^.	c #737169",
"/.	c #D7D7D2",
"(.	c #D0D0CD",
"_.	c #CFCFCD",
":.	c #DDDDDD",
"<.	c #E9E9E9",
"[.	c #F4F4F4",
"}.	c #A9A69D",
"|.	c #3F382D",
"1.	c #241F17",
"2.	c #B4B3AD",
"3.	c #D1D1CC",
"4.	c #CCCCCA",
"5.	c #D0D0CF",
"6.	c #DADADA",
"7.	c #ECECEB",
"8.	c #DAD9D6",
"9.	c #545048",
"0.	c #56524D",
"a.	c #CECECA",
"b.	c #C9C9C6",
"c.	c #C8C8C6",
"d.	c #D0D0D0",
"e.	c #E4E4E3",
"f.	c #D9D9D6",
"g.	c #C7C7C4",
"h.	c #C4C4C2",
"i.	c #C7C7C5",
"j.	c #D2D2D2",
"k.	c #E6E6E5",
"l.	c #D9D9D7",
"m.	c #C5C5C4",
"n.	c #C9C9C9",
"o.	c #D7D7D6",
"p.	c #E6E6E6",
"q.	c #F2F2F2",
"r.	c #EAEAEA",
"s.	c #DCDCDC",
"t.	c #CACACA",
"u.	c #CACAC9",
"v.	c #D1D1D1",
"w.	c #EBEBEB",
"x.	c #F5F5F5",
"y.	c #DBDBDA",
"z.	c #D5D5D4",
"A.	c #D5D5D5",
"B.	c #E7E7E7",
"C.	c #E3E3E3",
". . . . . . . . . . . . . . . . . . . . ",
". . . . . . . . . . . . . . . . . . . . ",
". . . . . . . . . . . . . . . . . . . . ",
". . + @ # $ % & & * = - ; > , & ' ' . . ",
". ' ) ! ~ { ] ^ / ( _ : < [ } | 1 & ' . ",
". & 1 ^ 2 3 4 4 5 6 7 8 9 0 a b } 1 ' . ",
"' , / c d e f g h i j k l m n o b p ' . ",
"' 1 q 0 r s t u v w x y z A B C D | & . ",
"' 1 E F G H I J K L M N O P Q R o } & . ",
"' , q S G T U V W X Y y Z Z `  ...| ' . ",
". & / 0 +.@.#.$.%.&.*.=.-.;.>.,.'.).' . ",
". ' ).c !.G ~.{.].^./.(._.P :.<.[., ' . ",
". . & } D l }.|.1.2.3.4.5.6.,.D | ' . . ",
". . ' ).c 7.8.9.0.a.b.c.d.:.<.[.1 . . . ",
". . . , q S e.f.a.g.h.i.j.R o } ' . . . ",
". . . ' | a k.l.4.m.h.n.o.p.q.).' . . . ",
". . . . 1 [.r.s.;.t.u.v.:.w.x., . . . . ",
". . . . & | D ,.y.z.A.s.p.'.| ' . . . . ",
". . . . ' 1 x...B.C.C.<.D q 1 ' . . . . ",
". . . . . & p x.q.D D q.q ).' . . . . . "};
