/* XPM */
static char * variable2
_xpm[] = {
"24 24 166 2",
"  	c None",
". 	c #F59A7F",
"+ 	c #F7A78F",
"@ 	c #B01D17",
"# 	c #F2C9B7",
"$ 	c #CB190A",
"% 	c #FF876B",
"& 	c #F3CAB9",
"* 	c #AF1913",
"= 	c #FF8259",
"- 	c #EDC6B2",
"; 	c #FBE9E2",
"> 	c #4E0907",
", 	c #E04731",
"' 	c #FCEBE4",
") 	c #FDFDFD",
"! 	c #5B1B12",
"~ 	c #AB0F08",
"{ 	c #DE3E27",
"] 	c #6A1512",
"^ 	c #360908",
"/ 	c #791E14",
"( 	c #830C08",
"_ 	c #DA2310",
": 	c #F63B1E",
"< 	c #CF2715",
"[ 	c #B21409",
"} 	c #961009",
"| 	c #A4150D",
"1 	c #FE6632",
"2 	c #F6381A",
"3 	c #C3180C",
"4 	c #CE2413",
"5 	c #A4150E",
"6 	c #D12216",
"7 	c #EB3A26",
"8 	c #FF612E",
"9 	c #F83E1E",
"0 	c #D02413",
"a 	c #CD2515",
"b 	c #C81C13",
"c 	c #D52C20",
"d 	c #EC432E",
"e 	c #EF7438",
"f 	c #FE5C2C",
"g 	c #F04325",
"h 	c #EF3B22",
"i 	c #DD341E",
"j 	c #C81F15",
"k 	c #DD3124",
"l 	c #F24830",
"m 	c #F6A38A",
"n 	c #FF7D3A",
"o 	c #FD6432",
"p 	c #F45933",
"q 	c #F84A2A",
"r 	c #ED331D",
"s 	c #DE2C1C",
"t 	c #F6462E",
"u 	c #F44C33",
"v 	c #F7A890",
"w 	c #F1C3AE",
"x 	c #DB200E",
"y 	c #FF803C",
"z 	c #FD6C37",
"A 	c #FC7842",
"B 	c #FA6036",
"C 	c #F2492B",
"D 	c #E34029",
"E 	c #F44B33",
"F 	c #FE4F34",
"G 	c #E18E76",
"H 	c #F1D2C5",
"I 	c #9D0F07",
"J 	c #FF984C",
"K 	c #FE9452",
"L 	c #FD9057",
"M 	c #FD844C",
"N 	c #F66239",
"O 	c #E9472D",
"P 	c #FD6A3C",
"Q 	c #FE3F22",
"R 	c #EDC3AE",
"S 	c #FAE8E2",
"T 	c #A10F08",
"U 	c #FF9E57",
"V 	c #FFAF6D",
"W 	c #FDA870",
"X 	c #FDA16D",
"Y 	c #FC9660",
"Z 	c #FD8C52",
"` 	c #FF7E4E",
" .	c #E64E3F",
"..	c #F29484",
"+.	c #FFF2E9",
"@.	c #6C1611",
"#.	c #C82B17",
"$.	c #FFB070",
"%.	c #FFB980",
"&.	c #FFC095",
"*.	c #FDCFB3",
"=.	c #FF9863",
"-.	c #C3291D",
";.	c #FFA395",
">.	c #CA8884",
",.	c #7A1E0F",
"'.	c #810D0B",
").	c #B31C16",
"!.	c #D03620",
"~.	c #FFA673",
"{.	c #DB2B15",
"].	c #BA1F0E",
"^.	c #93160A",
"/.	c #850802",
"(.	c #841506",
"_.	c #A7110B",
":.	c #C62616",
"<.	c #D63A24",
"[.	c #F8C4AA",
"}.	c #ED4A2D",
"|.	c #E2361D",
"1.	c #C32010",
"2.	c #B21C0B",
"3.	c #A81308",
"4.	c #A20702",
"5.	c #B3140B",
"6.	c #CF2716",
"7.	c #EB573C",
"8.	c #FAE2D6",
"9.	c #DD1F0D",
"0.	c #FF9C68",
"a.	c #FE683A",
"b.	c #FB4B29",
"c.	c #E7361B",
"d.	c #D0220E",
"e.	c #C01604",
"f.	c #CD1C0B",
"g.	c #E5311E",
"h.	c #EE8463",
"i.	c #F7B89C",
"j.	c #D82310",
"k.	c #FF905C",
"l.	c #FF8043",
"m.	c #FF8942",
"n.	c #FE7238",
"o.	c #FA572E",
"p.	c #E4381A",
"q.	c #F03D1F",
"r.	c #FE361A",
"s.	c #FD4322",
"t.	c #FF9B67",
"u.	c #FF8442",
"v.	c #FF8F45",
"w.	c #FFA158",
"x.	c #FE894C",
"y.	c #FE904F",
"z.	c #FFA363",
"A.	c #FFAC77",
"B.	c #FF7B3F",
"C.	c #FF9851",
"D.	c #FFBB85",
"E.	c #FFDBBE",
"F.	c #FFC397",
"G.	c #FF884B",
"H.	c #FFA770",
"I.	c #FFB280",
"                          .                     ",
"                        + @                     ",
"                      + # $                     ",
"                    % & * $                     ",
"                  = - ; > $                     ",
"                  , ' ) ! ~                     ",
"                  { ] ^ / ( _                   ",
"                  : < [ } | $                   ",
"                  1 2 3 4 5 6 7                 ",
"                    8 9 0 a b c d               ",
"                    e f g h i j k l             ",
"                m     n o p q r s t u           ",
"              v w x     y z A B C D E F         ",
"            G H I         J K L M N O P Q       ",
"          % R S T           U V W X Y Z `       ",
"         ...+.) @.#.          $.%.&.*.%.=.      ",
"        -.;.>.,.'.).!.          $.&.%.~.        ",
"        {.].^./.(._.:.<.        [.}.~.          ",
"          |.1.2.3.4.5.6.7.    8.9.0.            ",
"            a.b.c.d.e.f.g.h.i.j.k.              ",
"              l.m.n.o.p.q.r.s.t.                ",
"                u.v.w.x.y.z.A.                  ",
"                  B.C.D.E.F.                    ",
"                    G.H.I.                      "};
